<svg xmlns="http://www.w3.org/2000/svg" id="Layer_1" data-name="Layer 1" viewBox="0 0 202 67"><defs><style>.cls-1{fill:#32325c;}.cls-2{fill:#0a8aff;}</style></defs><path class="cls-1" d="M607.57,390.64l-.63,0c-4.25.12-8.33,0-11.9.14h-.14c-3.72.2-6.89.77-9.13,2.43h0c-2.17,1.61-3.46,4.25-3.53,8.57v.36l0-.37c-.07-1.05-.12-2.05-.16-3v-.31c0-.41,0-.81,0-1.21a2.44,2.44,0,0,1,0-.27c0-.7,0-1.37,0-2,0-.13,0-.26,0-.39a19.13,19.13,0,0,1,.24-2.08l.09-.51a.13.13,0,0,0,0-.06c0-.16.07-.31.11-.45a4.94,4.94,0,0,1,.15-.55l.09-.3a9,9,0,0,1,2.7-4.16l.35-.29h0l0,0h0l.5-.37h0c.21-.15.44-.29.66-.43h0l.35-.2h0l.37-.2.38-.19.34-.15.7-.29.44-.17c.45-.16.93-.32,1.43-.46l.44-.12.14,0,.47-.11.33-.08.74-.16.34-.07,1.22-.21.27,0H595c1.7-.25,3.61-.43,5.76-.53l.82,0,1.28,0h1.33c16.52.21,19.5-9.24,10.67-19.82C623.54,367.86,632.37,390.09,607.57,390.64Z" transform="translate(-582 -351.13)"></path><path class="cls-2" d="M614.9,379.44a14.22,14.22,0,0,0-.1-2.42c-.81-6.25-6.3-6.43-19.76-6.43V380H595a26.7,26.7,0,0,0-9.12,2.66l0,0,.1-20.53H606.1a15.53,15.53,0,0,1,6.62,1.62,8.11,8.11,0,0,1,1.31.88,12.49,12.49,0,0,1,1.55,1.81h0C617.86,369.74,618.78,374.47,614.9,379.44Z" transform="translate(-582 -351.13)"></path><path class="cls-2" d="M621.35,411.2H585.67l.05-9.83,0-2.73h0a5.32,5.32,0,0,1,3-3.86,17.27,17.27,0,0,1,6.08-1.17H595v8.69h7C618.18,401.92,619.61,406.63,621.35,411.2Z" transform="translate(-582 -351.13)"></path><ellipse class="cls-1" cx="32.61" cy="5.02" rx="3.71" ry="3.33"></ellipse><text x="-582" y="-351.13"></text><path class="cls-2" d="M656.83,395.09a12.63,12.63,0,0,1-7.15,2.61,9.61,9.61,0,0,1-4.49-1.15,5.06,5.06,0,0,1-2.73-4.46h22.4l-.22-1.31c-.21-1.13-.37-2.23-.52-3.3a38.6,38.6,0,0,0-1.4-6.81c-2-6-6.71-9.16-13.67-9.16-.56,0-1.13,0-1.72.07-7.2.5-12.35,4.72-13.43,11a45,45,0,0,0-.49,7.4l0,1.34a14,14,0,0,0,4.47,10.56,15.78,15.78,0,0,0,10.86,3.87c.62,0,1.25,0,1.88-.08A20,20,0,0,0,662.42,401l.82-.73-5.44-5.89ZM652.07,380c1.87,1.06,2.6,2.72,2.94,4.88H642.52a5.6,5.6,0,0,1,3-4.77,7.58,7.58,0,0,1,3.5-.93A6.13,6.13,0,0,1,652.07,380Z" transform="translate(-582 -351.13)"></path><path class="cls-2" d="M703.46,382.45c-.16-4.56-2.87-8.08-7.4-9.66a23.36,23.36,0,0,0-7.7-1.37,20.44,20.44,0,0,0-10.71,3.06,12.12,12.12,0,0,0-1.49,1.16c-.2.18-.41.38-.65.58l-1.15.95,1.28.8,1.13.69c.77.47,1.48.91,2.15,1.38a4,4,0,0,0,2.4.83,5.33,5.33,0,0,0,2.08-.49,16.83,16.83,0,0,1,4.85-1.22,8.78,8.78,0,0,1,1-.06,5,5,0,0,1,5.43,4.89,3.52,3.52,0,0,1,0,.61,2.73,2.73,0,0,1-.78.07h-1c-.88,0-1.75,0-2.63,0a75.94,75.94,0,0,0-7.72.33c-5.53.58-8.76,3.72-9.07,8.82-.39,6.11,2.27,9.87,7.9,11.19a26,26,0,0,0,5.89.75,16.39,16.39,0,0,0,7.55-1.74l.27,1.23h3.81c.92,0,1.64,0,2.32-.08a2.72,2.72,0,0,0,2.31-2.24l0-3.29C703.63,394,703.68,388.19,703.46,382.45Zm-8.76,9.75a7.71,7.71,0,0,0,0,1.35c0,.18,0,.35,0,.52v.58c0,.47,0,.94,0,1.4a1.57,1.57,0,0,1-1.53,1.84,53.92,53.92,0,0,1-5.61.37c-.81,0-1.56,0-2.27-.1a3,3,0,0,1-3-3.54c.15-1.91,1.23-2.77,3.6-2.85.78,0,1.55,0,2.33,0h3.36c.85,0,1.71,0,2.56-.05h.17l.38,0A2.18,2.18,0,0,1,694.7,392.2Z" transform="translate(-582 -351.13)"></path><path class="cls-2" d="M744.47,391.87c1.5,7.23-2.05,12-10,13.35a33.83,33.83,0,0,1-5.81.53,25.28,25.28,0,0,1-14.23-4.18,8.27,8.27,0,0,1-.82-.65c-.14-.13-.3-.25-.48-.4l-.88-.72,5.11-5.69.91.39c.79.34,1.55.71,2.29,1.08a18.44,18.44,0,0,0,4.26,1.68,24.72,24.72,0,0,0,4.81.36h2l1.23,0a4.66,4.66,0,0,0,1.8-.75,2.36,2.36,0,0,0,1.12-2.63c-.12-.85-.76-1.37-1.87-1.53-2-.29-4-.49-6-.7-.83-.07-1.65-.16-2.48-.26l-.78-.05c-6.52-.7-9.61-3.25-10-8.29-.45-5.77,2.57-9.77,8.51-11.25a24.36,24.36,0,0,1,5.87-.68,27.06,27.06,0,0,1,15.11,4.37l1,.72-5,5.36-.79-.21-2.94-.82a59.25,59.25,0,0,0-6.24-1.56,7.07,7.07,0,0,0-1.06-.07,16.46,16.46,0,0,0-3.6.53,2.33,2.33,0,0,0-1.93,2.67c.11.82.5,1.24,2.45,1.48,1.4.18,2.81.32,4.22.45,2.34.23,4.75.47,7.12.87A8.16,8.16,0,0,1,744.47,391.87Z" transform="translate(-582 -351.13)"></path><path class="cls-2" d="M784,372l-3,7.92c-1.78,4.63-3.49,9.12-5.21,13.62q-1.35,3.45-2.68,6.91c-1.37,3.57-2.76,7.12-4.12,10.68-1.82,4.81-5.07,7.05-10.23,7.05a23.61,23.61,0,0,1-2.57-.16l-1.09-.14v-7.42l1.09-.13.68-.07a9.36,9.36,0,0,0,1.26-.17l.21,0a5.89,5.89,0,0,0,1.58-.49c1.68-1,3.14-5.4,2.4-7.22q-5.58-13.52-11.13-27.05c-.13-.33-.23-.68-.37-1.12l-.23-.71-.48-1.45h3.43l1.62,0a27.68,27.68,0,0,1,2.78.11c1.5.14,2.29,2,2.38,2.21,1.8,4.45,3.56,8.93,5.32,13.39l1.6,4c.17-.46.33-.92.49-1.37.56-1.51,1.11-3,1.68-4.53,1.37-3.7,2.79-7.53,4.1-11.32a3.4,3.4,0,0,1,3.55-2.55l.55,0c.53,0,1.07.06,1.63.06l1.37,0H784Z" transform="translate(-582 -351.13)"></path></svg>